<?xml version="1.0" encoding="UTF-8" standalone="no"?>
<!DOCTYPE svg PUBLIC "-//W3C//DTD SVG 1.1//EN" "http://www.w3.org/Graphics/SVG/1.1/DTD/svg11.dtd">
<svg width="100%" height="100%" viewBox="0 0 224 322" version="1.1" xmlns="http://www.w3.org/2000/svg" xmlns:xlink="http://www.w3.org/1999/xlink" xml:space="preserve" xmlns:serif="http://www.serif.com/" style="fill-rule:evenodd;clip-rule:evenodd;stroke-linejoin:round;stroke-miterlimit:2;">
    <g transform="matrix(1,0,0,1,-116.911,-69.0437)">
        <g transform="matrix(0.873292,0,0,0.983742,19.8951,1.12252)">
            <rect x="111.092" y="69.044" width="255.837" height="326.982" style="fill:none;"/>
        </g>
        <g transform="matrix(1,0,0,1,4.80464,8.64835)">
            <g transform="matrix(1,0,0,1,-4.80464,-8.64835)">
                <path d="M189.339,372.062C200.511,375.77 212.68,377.807 225.41,377.807C253.554,377.807 278.956,367.85 296.906,351.895C283.843,335.067 263.698,324.273 241.113,324.273C224.466,324.273 209.145,330.137 197.01,339.958C212.148,315.674 237.069,299.809 265.225,299.809C298.205,299.809 326.747,321.575 340.331,353.151C311.355,375.991 271.99,389.637 228.654,388.825C215.094,388.57 201.922,386.915 189.339,384.027L189.339,372.062Z" style="fill:rgb(235,235,235);"/>
            </g>
            <g transform="matrix(1,0,0,1,-4.80464,-8.64835)">
                <path d="M266.799,191.15C277.92,186.399 289.991,182.863 302.765,180.812C311.843,179.354 320.819,178.72 329.575,178.846C333.581,192.03 335.744,206.076 335.744,220.652C335.744,285.351 293.136,339.622 235.948,353.852C234.816,354.152 233.68,354.433 232.533,354.699L232.467,354.664L232.31,354.699L232.148,354.581C232.35,354.534 232.552,354.486 232.756,354.436C266.328,340.068 300.362,300.831 295.406,259.13C293.893,259.051 292.368,259.007 290.833,258.997C273.009,258.882 256.536,263.461 243.316,271.262L266.799,191.15Z" style="fill:white;"/>
            </g>
            <g transform="matrix(1,0,0,1,-4.80464,-8.64835)">
                <path d="M180.906,227.615L180.906,73.427C235.53,94.82 273.866,144.703 273.866,202.767C273.866,256.958 240.473,304.023 191.607,327.454C215.1,311.408 231.523,276.307 231.732,235.547C231.848,212.916 226.948,191.979 218.572,175.041C201.882,188.468 188.733,206.617 180.906,227.615Z" style="fill:rgb(68,123,40);"/>
            </g>
            <g transform="matrix(1,0,0,1.05358,-4.70624,-12.4516)">
                <rect x="159.222" y="69.142" width="11.021" height="282.798" style="fill:rgb(68,123,40);"/>
            </g>
            <g transform="matrix(1,0,0,1,-4.70624,-8.74674)">
                <rect x="141.117" y="336.787" width="29.126" height="30.307" style="fill:rgb(68,123,40);"/>
            </g>
            <g transform="matrix(1,0,0,1,-4.80464,-8.64835)">
                <path d="M194.646,312.975L116.911,312.975L116.911,390.71L194.646,390.71L194.646,312.975ZM186.774,320.846L124.783,320.846L124.783,382.838L186.774,382.838L186.774,320.846Z" style="fill:white;"/>
            </g>
        </g>
    </g>
</svg>
