<?xml version="1.0" encoding="UTF-8" standalone="no"?>
<!DOCTYPE svg PUBLIC "-//W3C//DTD SVG 1.1//EN" "http://www.w3.org/Graphics/SVG/1.1/DTD/svg11.dtd">
<svg width="100%" height="100%" viewBox="0 0 224 322" version="1.1" xmlns="http://www.w3.org/2000/svg" xmlns:xlink="http://www.w3.org/1999/xlink" xml:space="preserve" xmlns:serif="http://www.serif.com/" style="fill-rule:evenodd;clip-rule:evenodd;stroke-linejoin:round;stroke-miterlimit:2;">
    <g transform="matrix(1,0,0,1,-116.911,-69.0437)">
        <g transform="matrix(0.873292,0,0,0.983742,19.8951,1.12252)">
            <rect x="111.092" y="69.044" width="255.837" height="326.982" style="fill:none;"/>
        </g>
        <g transform="matrix(1,0,0,1,4.80464,8.64835)">
            <g transform="matrix(1,0,0,1,-4.80464,-8.64835)">
                <path d="M189.339,372.062C200.511,375.77 212.68,377.807 225.41,377.807C253.554,377.807 278.956,367.85 296.906,351.895C283.843,335.067 263.698,324.273 241.113,324.273C224.466,324.273 209.145,330.137 197.01,339.958C212.148,315.674 237.069,299.809 265.225,299.809C298.205,299.809 326.747,321.575 340.331,353.151C311.355,375.991 271.99,389.637 228.654,388.825C215.094,388.57 201.922,386.915 189.339,384.027L189.339,372.062Z" style="fill:rgb(235,235,235);"/>
            </g>
        </g>
    </g>
</svg>
