<?xml version="1.0" encoding="UTF-8" standalone="no"?>
<!DOCTYPE svg PUBLIC "-//W3C//DTD SVG 1.1//EN" "http://www.w3.org/Graphics/SVG/1.1/DTD/svg11.dtd">
<svg width="100%" height="100%" viewBox="0 0 224 322" version="1.1" xmlns="http://www.w3.org/2000/svg" xmlns:xlink="http://www.w3.org/1999/xlink" xml:space="preserve" xmlns:serif="http://www.serif.com/" style="fill-rule:evenodd;clip-rule:evenodd;stroke-linejoin:round;stroke-miterlimit:2;">
    <g transform="matrix(1,0,0,1,-116.911,-69.0437)">
        <g transform="matrix(0.873292,0,0,0.983742,19.8951,1.12252)">
            <rect x="111.092" y="69.044" width="255.837" height="326.982" style="fill:none;"/>
        </g>
        <g transform="matrix(1,0,0,1,4.80464,8.64835)">
            <g transform="matrix(1,0,0,1,-4.80464,-8.64835)">
                <path d="M261.953,193.325C274.379,187.473 288.109,183.165 302.765,180.812C311.843,179.354 320.819,178.72 329.575,178.846C333.581,192.03 335.744,206.076 335.744,220.652C335.744,286.718 291.315,341.912 232.31,354.699L232.148,354.581C270.345,345.633 299.728,307.022 302.393,259.738C298.624,259.275 294.763,259.022 290.833,258.997C272.831,258.881 256.209,263.553 242.92,271.497L261.953,193.325Z" style="fill:white;"/>
            </g>
        </g>
    </g>
</svg>
