<?xml version="1.0" encoding="UTF-8" standalone="no"?>
<!DOCTYPE svg PUBLIC "-//W3C//DTD SVG 1.1//EN" "http://www.w3.org/Graphics/SVG/1.1/DTD/svg11.dtd">
<svg width="100%" height="100%" viewBox="0 0 224 322" version="1.1" xmlns="http://www.w3.org/2000/svg" xmlns:xlink="http://www.w3.org/1999/xlink" xml:space="preserve" xmlns:serif="http://www.serif.com/" style="fill-rule:evenodd;clip-rule:evenodd;stroke-linejoin:round;stroke-miterlimit:2;">
    <g transform="matrix(1,0,0,1,-116.911,-69.0437)">
        <g transform="matrix(0.873292,0,0,0.983742,19.8951,1.12252)">
            <rect x="111.092" y="69.044" width="255.837" height="326.982" style="fill:none;"/>
        </g>
        <g transform="matrix(1,0,0,1,4.80464,8.64835)">
            <g transform="matrix(1,0,0,1,-4.80464,-8.64835)">
                <path d="M266.799,191.15C277.92,186.399 289.991,182.863 302.765,180.812C311.843,179.354 320.819,178.72 329.575,178.846C333.581,192.03 335.744,206.076 335.744,220.652C335.744,285.351 293.136,339.622 235.948,353.852C234.816,354.152 233.68,354.433 232.533,354.699L232.467,354.664L232.31,354.699L232.148,354.581C232.35,354.534 232.552,354.486 232.756,354.436C266.328,340.068 300.362,300.831 295.406,259.13C293.893,259.051 292.368,259.007 290.833,258.997C273.009,258.882 256.536,263.461 243.316,271.262L266.799,191.15Z" style="fill:white;"/>
            </g>
        </g>
    </g>
</svg>
